<svg xmlns="http://www.w3.org/2000/svg" xmlns:xlink="http://www.w3.org/1999/xlink" width="50" zoomAndPan="magnify" viewBox="0 0 37.5 37.499999" height="50" preserveAspectRatio="xMidYMid meet" version="1.0"><defs><clipPath id="b12e94ea69"><path d="M 0 0 L 37 0 L 37 37.007812 L 0 37.007812 Z M 0 0 " clip-rule="nonzero"/></clipPath></defs><g clip-path="url(#b12e94ea69)"><path fill="#fea000" d="M 18.648438 37.007812 C 28 37.007812 35.730469 30.058594 36.976562 21.046875 L 18.035156 21.046875 L 22.199219 25.210938 C 23.152344 26.160156 23.152344 27.695312 22.199219 28.648438 C 21.246094 29.597656 19.714844 29.597656 18.761719 28.648438 L 10.507812 20.390625 C 9.5625 19.449219 9.554688 17.90625 10.5 16.960938 L 18.699219 8.722656 C 19.175781 8.246094 19.796875 8.003906 20.425781 8.003906 C 21.046875 8.003906 21.667969 8.238281 22.136719 8.714844 C 23.085938 9.660156 23.09375 11.199219 22.144531 12.152344 L 18.132812 16.179688 L 37 16.179688 C 35.851562 7.0625 28.074219 0 18.648438 0 C 8.433594 0 0.144531 8.289062 0.144531 18.503906 C 0.144531 28.71875 8.425781 37.007812 18.648438 37.007812 Z M 18.648438 37.007812 " fill-opacity="1" fill-rule="nonzero"/></g></svg>