<svg xmlns="http://www.w3.org/2000/svg" xmlns:xlink="http://www.w3.org/1999/xlink" width="50" zoomAndPan="magnify" viewBox="0 0 37.5 37.499999" height="50" preserveAspectRatio="xMidYMid meet" version="1.0"><defs><clipPath id="ad79847900"><path d="M 0.140625 0 L 37 0 L 37 37.007812 L 0.140625 37.007812 Z M 0.140625 0 " clip-rule="nonzero"/></clipPath></defs><g clip-path="url(#ad79847900)"><path fill="#fea000" d="M 18.496094 0 C 9.144531 0 1.414062 6.949219 0.171875 15.960938 L 19.109375 15.960938 L 14.945312 11.796875 C 13.992188 10.84375 13.992188 9.3125 14.945312 8.359375 C 15.898438 7.40625 17.429688 7.40625 18.382812 8.359375 L 26.636719 16.613281 C 27.582031 17.558594 27.589844 19.101562 26.644531 20.042969 L 18.449219 28.285156 C 17.972656 28.757812 17.351562 29 16.722656 29 C 16.097656 29 15.476562 28.769531 15.011719 28.292969 C 14.058594 27.347656 14.050781 25.804688 15 24.855469 L 19.011719 20.828125 L 0.144531 20.828125 C 1.292969 29.945312 9.070312 37.007812 18.496094 37.007812 C 28.710938 37.007812 37 28.71875 37 18.503906 C 37 8.289062 28.71875 0 18.496094 0 Z M 18.496094 0 " fill-opacity="1" fill-rule="nonzero"/></g></svg>