<svg xmlns="http://www.w3.org/2000/svg" xmlns:xlink="http://www.w3.org/1999/xlink" width="4000" zoomAndPan="magnify" viewBox="0 0 3000 2999.999989" height="4000" preserveAspectRatio="xMidYMid meet" version="1.0"><defs><g/><clipPath id="9966b6aa91"><path d="M 1254 300 L 2409.664062 300 L 2409.664062 2020.5 L 1254 2020.5 Z M 1254 300 " clip-rule="nonzero"/></clipPath><clipPath id="04ca6ee4af"><path d="M 590.164062 300 L 1572 300 L 1572 2020.5 L 590.164062 2020.5 Z M 590.164062 300 " clip-rule="nonzero"/></clipPath></defs><g clip-path="url(#9966b6aa91)"><path fill="#fea000" d="M 1254.511719 1161.953125 L 1868.808594 2020.5625 L 2409.660156 2020.5625 L 1798.675781 1161.953125 L 2409.660156 299.867188 L 1868.808594 299.867188 Z M 1254.511719 1161.953125 " fill-opacity="1" fill-rule="evenodd"/></g><g clip-path="url(#04ca6ee4af)"><path fill="#1a1a1a" d="M 1571.640625 2020.5625 L 960.765625 1161.953125 L 1571.640625 299.867188 L 590.164062 299.867188 L 590.164062 2020.5625 Z M 1571.640625 2020.5625 " fill-opacity="1" fill-rule="evenodd"/></g><g fill="#ffffff" fill-opacity="1"><g transform="translate(131.54336, 2595.25169)"><g><path d="M 281 0 L 182.171875 -146.90625 L 132.484375 -91.890625 L 132.484375 0 L 37.390625 0 L 37.390625 -373.953125 L 132.484375 -373.953125 L 132.484375 -212.078125 L 275.65625 -373.953125 L 385.703125 -373.953125 L 246.8125 -219.03125 L 394.78125 0 Z M 281 0 "/></g></g></g><g fill="#ffffff" fill-opacity="1"><g transform="translate(535.916336, 2595.25169)"><g><path d="M 285.8125 -68.921875 L 122.34375 -68.921875 L 95.09375 0 L -2.671875 0 L 158.65625 -373.953125 L 256.421875 -373.953125 L 414.015625 0 L 312.515625 0 Z M 258.03125 -141.03125 L 204.609375 -279.390625 L 150.109375 -141.03125 Z M 258.03125 -141.03125 "/></g></g></g><g fill="#ffffff" fill-opacity="1"><g transform="translate(952.57543, 2595.25169)"><g><path d="M 382.5 0 L 298.625 0 L 126.609375 -230.25 L 126.609375 0 L 37.390625 0 L 37.390625 -373.953125 L 121.265625 -373.953125 L 293.828125 -143.171875 L 293.828125 -373.953125 L 382.5 -373.953125 Z M 382.5 0 "/></g></g></g><g fill="#ffffff" fill-opacity="1"><g transform="translate(1377.781321, 2595.25169)"><g><path d="M 373.953125 -373.953125 L 373.953125 -157.0625 C 373.953125 -107.550781 358.632812 -68.28125 328 -39.25 C 297.375 -10.226562 255.882812 4.28125 203.53125 4.28125 C 150.820312 4.28125 108.882812 -10.226562 77.71875 -39.25 C 46.5625 -68.28125 30.984375 -107.550781 30.984375 -157.0625 L 30.984375 -373.953125 L 126.078125 -373.953125 L 126.078125 -157.0625 C 126.078125 -132.132812 133.285156 -112.28125 147.703125 -97.5 C 162.128906 -82.71875 180.921875 -75.328125 204.078125 -75.328125 C 226.867188 -75.328125 245.117188 -82.625 258.828125 -97.21875 C 272.535156 -111.820312 279.390625 -131.769531 279.390625 -157.0625 L 279.390625 -373.953125 Z M 373.953125 -373.953125 "/></g></g></g><g fill="#ffffff" fill-opacity="1"><g transform="translate(1788.0303, 2595.25169)"><g><path d="M 314.65625 -299.15625 L 132.484375 -299.15625 L 132.484375 -212.625 L 300.234375 -212.625 L 300.234375 -137.828125 L 132.484375 -137.828125 L 132.484375 0 L 37.390625 0 L 37.390625 -373.953125 L 314.65625 -373.953125 Z M 314.65625 -299.15625 "/></g></g></g><g fill="#ffffff" fill-opacity="1"><g transform="translate(2116.016051, 2595.25169)"><g><path d="M 262.828125 0 L 207.28125 -105.234375 L 132.484375 -105.234375 L 132.484375 0 L 37.390625 0 L 37.390625 -373.953125 L 204.609375 -373.953125 C 254.109375 -373.953125 292.390625 -362.644531 319.453125 -340.03125 C 346.523438 -317.414062 360.0625 -285.273438 360.0625 -243.609375 C 360.0625 -185.910156 337.445312 -145.84375 292.21875 -123.40625 L 370.75 0 Z M 132.484375 -180.03125 L 204.609375 -180.03125 C 225.265625 -180.03125 241.289062 -185.191406 252.6875 -195.515625 C 264.082031 -205.847656 269.78125 -220.8125 269.78125 -240.40625 C 269.78125 -259.632812 264.082031 -274.234375 252.6875 -284.203125 C 241.289062 -294.171875 225.265625 -299.15625 204.609375 -299.15625 L 132.484375 -299.15625 Z M 132.484375 -180.03125 "/></g></g></g><g fill="#ffffff" fill-opacity="1"><g transform="translate(2508.102952, 2595.25169)"><g><path d="M 330.140625 -299.15625 L 132.484375 -299.15625 L 132.484375 -224.90625 L 310.921875 -224.90625 L 310.921875 -150.109375 L 132.484375 -150.109375 L 132.484375 -74.796875 L 336.03125 -74.796875 L 336.03125 0 L 37.390625 0 L 37.390625 -373.953125 L 330.140625 -373.953125 Z M 330.140625 -299.15625 "/></g></g></g></svg>