<svg xmlns="http://www.w3.org/2000/svg" xmlns:xlink="http://www.w3.org/1999/xlink" width="500" zoomAndPan="magnify" viewBox="0 0 375 374.999991" height="500" preserveAspectRatio="xMidYMid meet" version="1.0"><defs><clipPath id="794ffba031"><path d="M 144.328125 196 L 160 196 L 160 227.546875 L 144.328125 227.546875 Z M 144.328125 196 " clip-rule="nonzero"/></clipPath><clipPath id="0d73dae4c3"><path d="M 189 147.296875 L 192 147.296875 L 192 155 L 189 155 Z M 189 147.296875 " clip-rule="nonzero"/></clipPath></defs><rect x="-37.5" width="450" fill="#ffffff" y="-37.499999" height="449.999989" fill-opacity="1"/><rect x="-37.5" width="450" fill="#ffffff" y="-37.499999" height="449.999989" fill-opacity="1"/><path fill="#fea000" d="M 197.089844 211.746094 C 196.34375 211.746094 195.496094 211.648438 194.597656 211.449219 L 180.242188 207.558594 C 178.945312 207.261719 179.492188 205.316406 180.738281 205.667969 L 195.046875 209.503906 C 202.472656 211.347656 201.574219 203.222656 195.992188 201.929688 L 178.746094 197.191406 C 175.15625 196.144531 171.769531 195.199219 168.628906 197.191406 L 158.808594 203.273438 C 157.660156 203.972656 156.613281 202.277344 157.761719 201.578125 L 167.582031 195.496094 C 171.71875 192.90625 175.855469 194.300781 179.894531 195.449219 C 183.730469 196.542969 193.050781 199.1875 196.441406 199.984375 C 203.667969 201.679688 204.765625 211.746094 197.089844 211.746094 Z M 197.089844 211.746094 " fill-opacity="1" fill-rule="evenodd"/><path fill="#fea000" d="M 165.984375 225.457031 C 164.890625 225.457031 160.453125 225.304688 157.609375 222.914062 C 156.613281 222.066406 157.910156 220.519531 158.90625 221.367188 C 161.5 223.5625 166.183594 223.460938 166.234375 223.460938 L 186.570312 223.460938 L 225.300781 201.082031 C 227.347656 199.933594 228.042969 197.34375 226.847656 195.296875 C 225.703125 193.304688 223.109375 192.605469 221.066406 193.753906 L 201.175781 205.21875 C 200.082031 205.914062 199.082031 204.171875 200.179688 203.523438 L 220.070312 192.007812 C 224.855469 189.265625 230.636719 193.703125 229.191406 199.035156 C 228.792969 200.632812 227.746094 201.976562 226.300781 202.824219 L 187.371094 225.304688 C 186.671875 225.703125 168.726562 225.355469 166.234375 225.457031 C 166.234375 225.457031 166.136719 225.457031 165.984375 225.457031 Z M 165.984375 225.457031 " fill-opacity="1" fill-rule="evenodd"/><g clip-path="url(#794ffba031)"><path fill="#fea000" d="M 157.011719 227.699219 L 146.59375 227.699219 C 145.347656 227.699219 144.351562 226.652344 144.351562 225.457031 L 144.351562 198.6875 C 144.351562 197.441406 145.347656 196.445312 146.59375 196.445312 L 157.011719 196.445312 C 158.257812 196.445312 159.257812 197.441406 159.257812 198.6875 L 159.257812 225.457031 C 159.257812 226.652344 158.257812 227.699219 157.011719 227.699219 Z M 146.59375 198.4375 C 146.445312 198.4375 146.347656 198.539062 146.347656 198.6875 L 146.347656 225.457031 C 146.347656 225.554688 146.445312 225.703125 146.59375 225.703125 L 157.011719 225.703125 C 157.164062 225.703125 157.261719 225.554688 157.261719 225.457031 L 157.261719 198.6875 C 157.261719 198.539062 157.164062 198.4375 157.011719 198.4375 Z M 146.59375 198.4375 " fill-opacity="1" fill-rule="evenodd"/></g><path fill="#fea000" d="M 151.828125 223.808594 C 147.394531 223.808594 147.394531 217.082031 151.828125 217.082031 C 156.214844 217.082031 156.214844 223.808594 151.828125 223.808594 Z M 151.828125 219.074219 C 150.035156 219.074219 150.035156 221.816406 151.828125 221.816406 C 153.574219 221.816406 153.574219 219.074219 151.828125 219.074219 Z M 151.828125 219.074219 " fill-opacity="1" fill-rule="evenodd"/><path fill="#fea000" d="M 211.144531 171.722656 C 197.636719 171.722656 184.128906 171.722656 170.621094 171.722656 C 169.773438 171.722656 169.324219 170.773438 169.824219 170.125 L 177.5 159.757812 C 177.699219 159.507812 178 159.359375 178.296875 159.359375 L 204.167969 159.359375 C 204.515625 159.359375 204.816406 159.507812 205.015625 159.757812 L 211.894531 170.074219 C 212.492188 170.875 211.84375 171.722656 211.144531 171.722656 Z M 172.566406 169.726562 L 209.253906 169.726562 L 203.667969 161.351562 L 178.796875 161.351562 Z M 172.566406 169.726562 " fill-opacity="1" fill-rule="evenodd"/><path fill="#fea000" d="M 190.859375 192.007812 C 190.609375 192.007812 190.359375 191.910156 190.160156 191.710938 L 169.875 171.421875 C 169.273438 170.824219 169.722656 169.726562 170.621094 169.726562 L 211.097656 169.726562 C 211.992188 169.726562 212.441406 170.824219 211.84375 171.421875 L 191.558594 191.710938 C 191.355469 191.910156 191.109375 192.007812 190.859375 192.007812 Z M 173.015625 171.722656 L 190.859375 189.617188 L 208.703125 171.722656 Z M 173.015625 171.722656 " fill-opacity="1" fill-rule="evenodd"/><path fill="#fea000" d="M 199.035156 171.722656 C 193.601562 171.722656 188.167969 171.722656 182.683594 171.722656 C 182.035156 171.722656 181.539062 171.074219 181.738281 170.425781 L 184.828125 160.058594 C 184.976562 159.609375 185.375 159.359375 185.824219 159.359375 L 196.242188 159.359375 C 196.691406 159.359375 197.089844 159.65625 197.1875 160.058594 L 200.03125 170.722656 C 200.03125 171.273438 199.582031 171.722656 199.035156 171.722656 Z M 184.03125 169.726562 L 197.738281 169.726562 L 195.445312 161.351562 L 186.523438 161.351562 Z M 184.03125 169.726562 " fill-opacity="1" fill-rule="evenodd"/><path fill="#fea000" d="M 190.859375 192.007812 C 190.460938 192.007812 190.109375 191.757812 189.910156 191.410156 L 181.785156 171.121094 C 181.539062 170.425781 181.984375 169.726562 182.683594 169.726562 L 199.035156 169.726562 C 199.730469 169.726562 200.230469 170.425781 199.929688 171.121094 L 191.804688 191.410156 C 191.65625 191.757812 191.257812 192.007812 190.859375 192.007812 Z M 184.179688 171.722656 L 190.859375 188.371094 L 197.539062 171.722656 Z M 184.179688 171.722656 " fill-opacity="1" fill-rule="evenodd"/><g clip-path="url(#0d73dae4c3)"><path fill="#fea000" d="M 190.859375 154.574219 C 190.308594 154.574219 189.863281 154.125 189.863281 153.578125 L 189.863281 148.59375 C 189.863281 147.296875 191.855469 147.296875 191.855469 148.59375 L 191.855469 153.578125 C 191.855469 154.125 191.40625 154.574219 190.859375 154.574219 Z M 190.859375 154.574219 " fill-opacity="1" fill-rule="evenodd"/></g><path fill="#fea000" d="M 202.222656 157.316406 C 201.425781 157.316406 200.976562 156.46875 201.328125 155.820312 L 203.867188 151.484375 C 204.515625 150.335938 206.210938 151.332031 205.5625 152.480469 L 203.070312 156.816406 C 202.871094 157.117188 202.574219 157.316406 202.222656 157.316406 Z M 202.222656 157.316406 " fill-opacity="1" fill-rule="evenodd"/><path fill="#fea000" d="M 179.492188 157.316406 C 179.195312 157.316406 178.847656 157.117188 178.644531 156.816406 L 176.152344 152.480469 C 175.507812 151.332031 177.199219 150.335938 177.898438 151.484375 L 180.390625 155.820312 C 180.738281 156.46875 180.292969 157.316406 179.492188 157.316406 Z M 179.492188 157.316406 " fill-opacity="1" fill-rule="evenodd"/></svg>