<svg xmlns="http://www.w3.org/2000/svg" xmlns:xlink="http://www.w3.org/1999/xlink" width="50" zoomAndPan="magnify" viewBox="0 0 37.5 37.499999" height="50" preserveAspectRatio="xMidYMid meet" version="1.0"><defs><g/><clipPath id="84d09bff83"><path d="M 16 3.699219 L 27.402344 3.699219 L 27.402344 20.71875 L 16 20.71875 Z M 16 3.699219 " clip-rule="nonzero"/></clipPath><clipPath id="35214ccb4b"><path d="M 9.640625 3.699219 L 20 3.699219 L 20 20.71875 L 9.640625 20.71875 Z M 9.640625 3.699219 " clip-rule="nonzero"/></clipPath></defs><g clip-path="url(#84d09bff83)"><path fill="#fea000" d="M 16.109375 12.097656 L 22.089844 20.457031 L 27.355469 20.457031 L 21.40625 12.097656 L 27.355469 3.703125 L 22.089844 3.703125 Z M 16.109375 12.097656 " fill-opacity="1" fill-rule="evenodd"/></g><g clip-path="url(#35214ccb4b)"><path fill="#000000" d="M 19.195312 20.457031 L 13.25 12.097656 L 19.195312 3.703125 L 9.640625 3.703125 L 9.640625 20.457031 Z M 19.195312 20.457031 " fill-opacity="1" fill-rule="evenodd"/></g><g fill="#fea000" fill-opacity="1"><g transform="translate(1.802359, 32.027549)"><g><path d="M 3.421875 0 L 2.21875 -1.796875 L 1.609375 -1.125 L 1.609375 0 L 0.453125 0 L 0.453125 -4.5625 L 1.609375 -4.5625 L 1.609375 -2.59375 L 3.359375 -4.5625 L 4.703125 -4.5625 L 3.015625 -2.671875 L 4.8125 0 Z M 3.421875 0 "/></g></g></g><g fill="#fea000" fill-opacity="1"><g transform="translate(6.737411, 32.027549)"><g><path d="M 3.484375 -0.84375 L 1.484375 -0.84375 L 1.15625 0 L -0.03125 0 L 1.9375 -4.5625 L 3.125 -4.5625 L 5.046875 0 L 3.8125 0 Z M 3.140625 -1.71875 L 2.5 -3.40625 L 1.828125 -1.71875 Z M 3.140625 -1.71875 "/></g></g></g><g fill="#fea000" fill-opacity="1"><g transform="translate(11.822405, 32.027549)"><g><path d="M 4.671875 0 L 3.640625 0 L 1.546875 -2.8125 L 1.546875 0 L 0.453125 0 L 0.453125 -4.5625 L 1.484375 -4.5625 L 3.578125 -1.75 L 3.578125 -4.5625 L 4.671875 -4.5625 Z M 4.671875 0 "/></g></g></g><g fill="#fea000" fill-opacity="1"><g transform="translate(17.011706, 32.027549)"><g><path d="M 4.5625 -4.5625 L 4.5625 -1.921875 C 4.5625 -1.316406 4.375 -0.835938 4 -0.484375 C 3.625 -0.128906 3.117188 0.046875 2.484375 0.046875 C 1.835938 0.046875 1.320312 -0.128906 0.9375 -0.484375 C 0.5625 -0.835938 0.375 -1.316406 0.375 -1.921875 L 0.375 -4.5625 L 1.53125 -4.5625 L 1.53125 -1.921875 C 1.53125 -1.609375 1.617188 -1.363281 1.796875 -1.1875 C 1.972656 -1.007812 2.203125 -0.921875 2.484375 -0.921875 C 2.765625 -0.921875 2.988281 -1.007812 3.15625 -1.1875 C 3.320312 -1.363281 3.40625 -1.609375 3.40625 -1.921875 L 3.40625 -4.5625 Z M 4.5625 -4.5625 "/></g></g></g><g fill="#fea000" fill-opacity="1"><g transform="translate(22.01847, 32.027549)"><g><path d="M 3.84375 -3.65625 L 1.609375 -3.65625 L 1.609375 -2.59375 L 3.65625 -2.59375 L 3.65625 -1.6875 L 1.609375 -1.6875 L 1.609375 0 L 0.453125 0 L 0.453125 -4.5625 L 3.84375 -4.5625 Z M 3.84375 -3.65625 "/></g></g></g><g fill="#fea000" fill-opacity="1"><g transform="translate(26.021276, 32.027549)"><g><path d="M 3.203125 0 L 2.53125 -1.28125 L 1.609375 -1.28125 L 1.609375 0 L 0.453125 0 L 0.453125 -4.5625 L 2.5 -4.5625 C 3.101562 -4.5625 3.566406 -4.421875 3.890625 -4.140625 C 4.222656 -3.867188 4.390625 -3.476562 4.390625 -2.96875 C 4.390625 -2.269531 4.113281 -1.78125 3.5625 -1.5 L 4.515625 0 Z M 1.609375 -2.203125 L 2.5 -2.203125 C 2.75 -2.203125 2.941406 -2.265625 3.078125 -2.390625 C 3.222656 -2.515625 3.296875 -2.695312 3.296875 -2.9375 C 3.296875 -3.164062 3.222656 -3.34375 3.078125 -3.46875 C 2.941406 -3.59375 2.75 -3.65625 2.5 -3.65625 L 1.609375 -3.65625 Z M 1.609375 -2.203125 "/></g></g></g><g fill="#fea000" fill-opacity="1"><g transform="translate(30.806387, 32.027549)"><g><path d="M 4.03125 -3.65625 L 1.609375 -3.65625 L 1.609375 -2.75 L 3.796875 -2.75 L 3.796875 -1.828125 L 1.609375 -1.828125 L 1.609375 -0.90625 L 4.09375 -0.90625 L 4.09375 0 L 0.453125 0 L 0.453125 -4.5625 L 4.03125 -4.5625 Z M 4.03125 -3.65625 "/></g></g></g></svg>