<svg xmlns="http://www.w3.org/2000/svg" xmlns:xlink="http://www.w3.org/1999/xlink" width="50" zoomAndPan="magnify" viewBox="0 0 37.5 37.499999" height="50" preserveAspectRatio="xMidYMid meet" version="1.0"><defs><clipPath id="7702485164"><path d="M 1 3 L 34 3 L 34 35.917969 L 1 35.917969 Z M 1 3 " clip-rule="nonzero"/></clipPath></defs><g clip-path="url(#7702485164)"><path fill="#fea000" d="M 31.355469 12.183594 C 31.28125 12.046875 31.167969 11.957031 31.019531 11.914062 C 30.871094 11.871094 30.726562 11.882812 30.589844 11.957031 C 30.453125 12.03125 30.359375 12.140625 30.3125 12.289062 C 30.265625 12.4375 30.277344 12.578125 30.347656 12.71875 C 35.585938 22.34375 28.226562 34.554688 17.25 34.414062 C 16.277344 34.414062 15.316406 34.320312 14.363281 34.128906 C 13.410156 33.9375 12.484375 33.65625 11.589844 33.285156 C 10.691406 32.914062 9.839844 32.457031 9.03125 31.917969 C 8.222656 31.375 7.476562 30.761719 6.789062 30.074219 C 6.101562 29.386719 5.488281 28.640625 4.949219 27.832031 C 4.40625 27.027344 3.953125 26.171875 3.578125 25.277344 C 3.207031 24.378906 2.925781 23.453125 2.734375 22.5 C 2.546875 21.546875 2.449219 20.585938 2.449219 19.613281 C 2.3125 8.636719 14.519531 1.277344 24.144531 6.515625 C 24.285156 6.589844 24.429688 6.601562 24.578125 6.554688 C 24.730469 6.511719 24.84375 6.417969 24.917969 6.277344 C 24.988281 6.140625 25.003906 5.996094 24.957031 5.84375 C 24.910156 5.695312 24.820312 5.582031 24.679688 5.507812 C 24.148438 5.226562 23.597656 4.976562 23.039062 4.757812 C 22.476562 4.539062 21.902344 4.355469 21.320312 4.199219 C 20.738281 4.046875 20.148438 3.925781 19.550781 3.839844 C 18.953125 3.753906 18.355469 3.699219 17.753906 3.679688 C 17.148438 3.660156 16.546875 3.675781 15.949219 3.726562 C 15.347656 3.773438 14.75 3.859375 14.160156 3.976562 C 13.566406 4.089844 12.984375 4.242188 12.410156 4.425781 C 11.835938 4.609375 11.273438 4.824219 10.722656 5.070312 C 10.175781 5.316406 9.640625 5.59375 9.121094 5.902344 C 8.601562 6.207031 8.101562 6.542969 7.621094 6.90625 C 7.140625 7.273438 6.683594 7.660156 6.246094 8.078125 C 5.8125 8.496094 5.402344 8.933594 5.015625 9.394531 C 4.628906 9.859375 4.269531 10.34375 3.9375 10.84375 C 3.605469 11.347656 3.304688 11.871094 3.03125 12.40625 C 2.757812 12.945312 2.515625 13.496094 2.308594 14.0625 C 2.097656 14.625 1.921875 15.203125 1.777344 15.785156 C 1.628906 16.371094 1.519531 16.964844 1.441406 17.5625 C 1.363281 18.160156 1.320312 18.757812 1.3125 19.363281 C 1.300781 19.964844 1.328125 20.566406 1.386719 21.167969 C 1.445312 21.765625 1.535156 22.359375 1.664062 22.949219 C 1.789062 23.539062 1.949219 24.121094 2.140625 24.691406 C 2.332031 25.261719 2.554688 25.820312 2.8125 26.367188 C 3.066406 26.914062 3.351562 27.445312 3.667969 27.957031 C 3.984375 28.472656 4.328125 28.964844 4.699219 29.441406 C 5.070312 29.914062 5.46875 30.367188 5.890625 30.796875 C 6.3125 31.226562 6.757812 31.628906 7.226562 32.007812 C 7.695312 32.386719 8.183594 32.738281 8.695312 33.0625 C 9.203125 33.386719 9.726562 33.679688 10.269531 33.945312 C 10.8125 34.207031 11.367188 34.441406 11.933594 34.640625 C 12.503906 34.84375 13.082031 35.011719 13.667969 35.148438 C 14.257812 35.28125 14.847656 35.382812 15.449219 35.453125 C 16.046875 35.519531 16.648438 35.554688 17.25 35.554688 C 29.074219 35.703125 37 22.554688 31.355469 12.183594 Z M 31.355469 12.183594 " fill-opacity="1" fill-rule="nonzero"/></g><path fill="#fea000" d="M 17.25 15.058594 C 17.746094 15.058594 18.230469 15.140625 18.699219 15.300781 C 18.847656 15.351562 18.992188 15.34375 19.132812 15.273438 C 19.277344 15.207031 19.371094 15.097656 19.421875 14.949219 C 19.671875 13.941406 17.898438 13.980469 17.25 13.921875 C 9.699219 14.230469 9.699219 24.996094 17.25 25.308594 C 17.625 25.304688 17.996094 25.269531 18.359375 25.195312 C 18.726562 25.125 19.082031 25.015625 19.429688 24.871094 C 19.773438 24.730469 20.101562 24.554688 20.414062 24.34375 C 20.722656 24.136719 21.011719 23.902344 21.273438 23.636719 C 21.539062 23.375 21.773438 23.085938 21.984375 22.773438 C 22.191406 22.464844 22.367188 22.136719 22.507812 21.792969 C 22.652344 21.445312 22.761719 21.089844 22.832031 20.722656 C 22.90625 20.355469 22.945312 19.988281 22.945312 19.613281 C 22.886719 18.953125 22.925781 17.199219 21.921875 17.445312 C 21.773438 17.5 21.664062 17.59375 21.59375 17.734375 C 21.527344 17.878906 21.515625 18.023438 21.570312 18.171875 C 21.726562 18.636719 21.808594 19.121094 21.804688 19.613281 C 21.578125 25.648438 12.925781 25.648438 12.695312 19.613281 C 12.695312 19.316406 12.726562 19.019531 12.785156 18.726562 C 12.84375 18.433594 12.929688 18.148438 13.042969 17.871094 C 13.160156 17.59375 13.300781 17.332031 13.464844 17.085938 C 13.632812 16.835938 13.820312 16.605469 14.03125 16.394531 C 14.242188 16.183594 14.472656 15.996094 14.722656 15.828125 C 14.96875 15.660156 15.234375 15.523438 15.507812 15.40625 C 15.785156 15.292969 16.070312 15.207031 16.363281 15.148438 C 16.65625 15.089844 16.953125 15.058594 17.25 15.058594 Z M 17.25 15.058594 " fill-opacity="1" fill-rule="nonzero"/><path fill="#fea000" d="M 22.703125 10.921875 C 22.777344 10.785156 22.792969 10.640625 22.75 10.488281 C 22.707031 10.339844 22.617188 10.226562 22.480469 10.148438 C 20.851562 9.25 19.109375 8.796875 17.25 8.796875 C 2.902344 9.390625 2.902344 29.839844 17.25 30.429688 C 17.71875 30.429688 18.1875 30.402344 18.648438 30.339844 C 19.113281 30.28125 19.574219 30.191406 20.027344 30.070312 C 20.480469 29.949219 20.921875 29.800781 21.355469 29.625 C 21.789062 29.445312 22.210938 29.242188 22.617188 29.007812 C 23.023438 28.777344 23.414062 28.519531 23.785156 28.234375 C 24.160156 27.953125 24.511719 27.648438 24.847656 27.320312 C 25.179688 26.988281 25.492188 26.640625 25.78125 26.269531 C 26.066406 25.902344 26.332031 25.515625 26.570312 25.113281 C 26.808594 24.707031 27.019531 24.292969 27.203125 23.859375 C 27.386719 23.429688 27.539062 22.988281 27.667969 22.539062 C 27.792969 22.085938 27.890625 21.628906 27.957031 21.164062 C 28.023438 20.703125 28.0625 20.234375 28.066406 19.769531 C 28.074219 19.300781 28.050781 18.832031 27.996094 18.367188 C 27.941406 17.902344 27.855469 17.441406 27.742188 16.988281 C 27.628906 16.535156 27.484375 16.089844 27.3125 15.652344 C 27.140625 15.214844 26.941406 14.792969 26.714844 14.382812 C 26.640625 14.246094 26.527344 14.15625 26.375 14.109375 C 26.222656 14.066406 26.078125 14.082031 25.941406 14.160156 C 25.804688 14.238281 25.710938 14.351562 25.667969 14.503906 C 25.625 14.652344 25.644531 14.796875 25.71875 14.9375 C 29.328125 21.195312 24.480469 29.417969 17.25 29.292969 C 16.617188 29.292969 15.984375 29.230469 15.363281 29.105469 C 14.738281 28.980469 14.136719 28.796875 13.546875 28.550781 C 12.960938 28.308594 12.402344 28.011719 11.875 27.65625 C 11.347656 27.304688 10.859375 26.902344 10.410156 26.453125 C 9.960938 26.003906 9.558594 25.515625 9.207031 24.988281 C 8.851562 24.460938 8.554688 23.902344 8.3125 23.316406 C 8.066406 22.730469 7.882812 22.125 7.761719 21.5 C 7.636719 20.878906 7.574219 20.25 7.570312 19.613281 C 7.449219 12.382812 15.667969 7.535156 21.929688 11.144531 C 22.066406 11.222656 22.210938 11.238281 22.359375 11.195312 C 22.511719 11.152344 22.625 11.058594 22.703125 10.921875 Z M 22.703125 10.921875 " fill-opacity="1" fill-rule="nonzero"/><path fill="#fea000" d="M 32.144531 8.746094 L 28 12.890625 C 27.890625 13 27.757812 13.054688 27.601562 13.054688 L 27.554688 13.054688 L 24.828125 12.84375 L 17.65625 20.019531 C 17.542969 20.125 17.410156 20.179688 17.253906 20.175781 C 17.097656 20.175781 16.964844 20.117188 16.855469 20.007812 C 16.746094 19.898438 16.691406 19.765625 16.6875 19.609375 C 16.6875 19.457031 16.738281 19.320312 16.847656 19.210938 L 24.019531 12.035156 L 23.808594 9.308594 C 23.796875 9.136719 23.851562 8.988281 23.972656 8.863281 L 28.121094 4.71875 C 28.292969 4.550781 28.492188 4.507812 28.71875 4.59375 C 28.945312 4.675781 29.070312 4.835938 29.09375 5.078125 L 29.28125 7.582031 L 31.785156 7.769531 C 32.027344 7.792969 32.1875 7.917969 32.273438 8.144531 C 32.355469 8.371094 32.3125 8.570312 32.144531 8.746094 Z M 32.144531 8.746094 " fill-opacity="1" fill-rule="nonzero"/></svg>