<svg xmlns="http://www.w3.org/2000/svg" xmlns:xlink="http://www.w3.org/1999/xlink" width="500" zoomAndPan="magnify" viewBox="0 0 375 374.999991" height="500" preserveAspectRatio="xMidYMid meet" version="1.0"><defs><g/><clipPath id="3af499747a"><path d="M 175 103.089844 L 231.292969 103.089844 L 231.292969 186.316406 L 175 186.316406 Z M 175 103.089844 " clip-rule="nonzero"/></clipPath><clipPath id="df82d5b625"><path d="M 143.542969 103.089844 L 191 103.089844 L 191 186.316406 L 143.542969 186.316406 Z M 143.542969 103.089844 " clip-rule="nonzero"/></clipPath></defs><rect x="-37.5" width="450" fill="#ffffff" y="-37.499999" height="449.999989" fill-opacity="1"/><rect x="-37.5" width="450" fill="#ffffff" y="-37.499999" height="449.999989" fill-opacity="1"/><g clip-path="url(#3af499747a)"><path fill="#fea000" d="M 175.640625 144.738281 L 205.324219 186.222656 L 231.457031 186.222656 L 201.933594 144.738281 L 231.457031 103.082031 L 205.324219 103.082031 Z M 175.640625 144.738281 " fill-opacity="1" fill-rule="evenodd"/></g><g clip-path="url(#df82d5b625)"><path fill="#000000" d="M 190.964844 186.222656 L 161.449219 144.738281 L 190.964844 103.082031 L 143.542969 103.082031 L 143.542969 186.222656 Z M 190.964844 186.222656 " fill-opacity="1" fill-rule="evenodd"/></g><g fill="#fea000" fill-opacity="1"><g transform="translate(83.008306, 238.228325)"><g><path d="M 21.453125 0 L 13.90625 -11.21875 L 10.125 -7.015625 L 10.125 0 L 2.859375 0 L 2.859375 -28.5625 L 10.125 -28.5625 L 10.125 -16.203125 L 21.046875 -28.5625 L 29.453125 -28.5625 L 18.84375 -16.734375 L 30.15625 0 Z M 21.453125 0 "/></g></g></g><g fill="#fea000" fill-opacity="1"><g transform="translate(113.885145, 238.228325)"><g><path d="M 21.828125 -5.265625 L 9.34375 -5.265625 L 7.265625 0 L -0.203125 0 L 12.109375 -28.5625 L 19.578125 -28.5625 L 31.625 0 L 23.859375 0 Z M 19.703125 -10.765625 L 15.625 -21.34375 L 11.46875 -10.765625 Z M 19.703125 -10.765625 "/></g></g></g><g fill="#fea000" fill-opacity="1"><g transform="translate(145.700118, 238.228325)"><g><path d="M 29.203125 0 L 22.8125 0 L 9.671875 -17.578125 L 9.671875 0 L 2.859375 0 L 2.859375 -28.5625 L 9.265625 -28.5625 L 22.4375 -10.9375 L 22.4375 -28.5625 L 29.203125 -28.5625 Z M 29.203125 0 "/></g></g></g><g fill="#fea000" fill-opacity="1"><g transform="translate(178.167703, 238.228325)"><g><path d="M 28.5625 -28.5625 L 28.5625 -12 C 28.5625 -8.21875 27.390625 -5.21875 25.046875 -3 C 22.710938 -0.78125 19.546875 0.328125 15.546875 0.328125 C 11.515625 0.328125 8.304688 -0.78125 5.921875 -3 C 3.546875 -5.21875 2.359375 -8.21875 2.359375 -12 L 2.359375 -28.5625 L 9.625 -28.5625 L 9.625 -12 C 9.625 -10.09375 10.175781 -8.570312 11.28125 -7.4375 C 12.382812 -6.3125 13.816406 -5.75 15.578125 -5.75 C 17.328125 -5.75 18.722656 -6.304688 19.765625 -7.421875 C 20.816406 -8.535156 21.34375 -10.0625 21.34375 -12 L 21.34375 -28.5625 Z M 28.5625 -28.5625 "/></g></g></g><g fill="#fea000" fill-opacity="1"><g transform="translate(209.493217, 238.228325)"><g><path d="M 24.03125 -22.84375 L 10.125 -22.84375 L 10.125 -16.234375 L 22.921875 -16.234375 L 22.921875 -10.53125 L 10.125 -10.53125 L 10.125 0 L 2.859375 0 L 2.859375 -28.5625 L 24.03125 -28.5625 Z M 24.03125 -22.84375 "/></g></g></g><g fill="#fea000" fill-opacity="1"><g transform="translate(234.537332, 238.228325)"><g><path d="M 20.078125 0 L 15.828125 -8.03125 L 10.125 -8.03125 L 10.125 0 L 2.859375 0 L 2.859375 -28.5625 L 15.625 -28.5625 C 19.40625 -28.5625 22.328125 -27.695312 24.390625 -25.96875 C 26.460938 -24.238281 27.5 -21.785156 27.5 -18.609375 C 27.5 -14.203125 25.769531 -11.140625 22.3125 -9.421875 L 28.3125 0 Z M 10.125 -13.75 L 15.625 -13.75 C 17.195312 -13.75 18.421875 -14.140625 19.296875 -14.921875 C 20.171875 -15.710938 20.609375 -16.859375 20.609375 -18.359375 C 20.609375 -19.828125 20.171875 -20.941406 19.296875 -21.703125 C 18.421875 -22.460938 17.195312 -22.84375 15.625 -22.84375 L 10.125 -22.84375 Z M 10.125 -13.75 "/></g></g></g><g fill="#fea000" fill-opacity="1"><g transform="translate(264.476039, 238.228325)"><g><path d="M 25.21875 -22.84375 L 10.125 -22.84375 L 10.125 -17.171875 L 23.75 -17.171875 L 23.75 -11.46875 L 10.125 -11.46875 L 10.125 -5.71875 L 25.65625 -5.71875 L 25.65625 0 L 2.859375 0 L 2.859375 -28.5625 L 25.21875 -28.5625 Z M 25.21875 -22.84375 "/></g></g></g></svg>