<svg xmlns="http://www.w3.org/2000/svg" xmlns:xlink="http://www.w3.org/1999/xlink" width="500" zoomAndPan="magnify" viewBox="0 0 375 374.999991" height="500" preserveAspectRatio="xMidYMid meet" version="1.0"><rect x="-37.5" width="450" fill="#ffffff" y="-37.499999" height="449.999989" fill-opacity="1"/><rect x="-37.5" width="450" fill="#ffffff" y="-37.499999" height="449.999989" fill-opacity="1"/><path fill="#fea000" d="M 221.355469 170.847656 C 221.261719 170.675781 221.136719 170.527344 220.984375 170.402344 C 220.832031 170.28125 220.660156 170.191406 220.472656 170.136719 C 220.28125 170.078125 220.089844 170.0625 219.894531 170.082031 C 219.699219 170.101562 219.515625 170.15625 219.339844 170.246094 C 219.167969 170.339844 219.019531 170.460938 218.890625 170.613281 C 218.765625 170.765625 218.671875 170.933594 218.613281 171.121094 C 218.554688 171.308594 218.53125 171.5 218.550781 171.695312 C 218.566406 171.890625 218.617188 172.078125 218.707031 172.253906 C 232.503906 197.613281 213.117188 229.785156 184.195312 229.417969 C 182.917969 229.417969 181.644531 229.351562 180.375 229.226562 C 179.105469 229.101562 177.84375 228.914062 176.589844 228.664062 C 175.339844 228.410156 174.101562 228.101562 172.878906 227.730469 C 171.65625 227.359375 170.457031 226.925781 169.277344 226.4375 C 168.097656 225.949219 166.945312 225.402344 165.820312 224.800781 C 164.695312 224.199219 163.601562 223.542969 162.539062 222.832031 C 161.476562 222.121094 160.453125 221.363281 159.464844 220.554688 C 158.480469 219.742188 157.535156 218.886719 156.632812 217.984375 C 155.730469 217.082031 154.871094 216.136719 154.0625 215.148438 C 153.253906 214.160156 152.492188 213.136719 151.78125 212.074219 C 151.074219 211.015625 150.417969 209.921875 149.8125 208.792969 C 149.210938 207.667969 148.664062 206.515625 148.175781 205.335938 C 147.6875 204.15625 147.257812 202.957031 146.886719 201.734375 C 146.515625 200.511719 146.203125 199.277344 145.953125 198.023438 C 145.703125 196.773438 145.515625 195.511719 145.386719 194.242188 C 145.261719 192.96875 145.199219 191.695312 145.195312 190.417969 C 144.835938 161.496094 176.996094 142.109375 202.363281 155.910156 C 202.539062 156.003906 202.726562 156.058594 202.925781 156.078125 C 203.121094 156.097656 203.316406 156.078125 203.507812 156.019531 C 203.695312 155.960938 203.867188 155.867188 204.023438 155.742188 C 204.175781 155.613281 204.296875 155.460938 204.390625 155.289062 C 204.484375 155.113281 204.542969 154.925781 204.558594 154.726562 C 204.578125 154.527344 204.558594 154.335938 204.5 154.144531 C 204.441406 153.953125 204.351562 153.78125 204.222656 153.628906 C 204.097656 153.476562 203.945312 153.351562 203.769531 153.257812 C 203.066406 152.890625 202.355469 152.539062 201.632812 152.210938 C 200.910156 151.878906 200.179688 151.570312 199.441406 151.285156 C 198.703125 150.996094 197.957031 150.730469 197.199219 150.484375 C 196.445312 150.238281 195.6875 150.011719 194.917969 149.8125 C 194.152344 149.609375 193.378906 149.425781 192.601562 149.269531 C 191.824219 149.109375 191.042969 148.972656 190.257812 148.859375 C 189.472656 148.746094 188.683594 148.652344 187.894531 148.582031 C 187.105469 148.511719 186.3125 148.464844 185.519531 148.441406 C 184.726562 148.414062 183.933594 148.414062 183.140625 148.433594 C 182.347656 148.453125 181.554688 148.496094 180.761719 148.558594 C 179.972656 148.625 179.183594 148.710938 178.398438 148.820312 C 177.613281 148.929688 176.832031 149.0625 176.050781 149.214844 C 175.273438 149.371094 174.5 149.546875 173.730469 149.742188 C 172.964844 149.941406 172.199219 150.160156 171.445312 150.402344 C 170.6875 150.640625 169.941406 150.90625 169.199219 151.1875 C 168.457031 151.472656 167.726562 151.777344 167 152.101562 C 166.277344 152.425781 165.5625 152.769531 164.859375 153.136719 C 164.15625 153.5 163.460938 153.886719 162.777344 154.289062 C 162.097656 154.695312 161.425781 155.117188 160.765625 155.5625 C 160.109375 156.003906 159.460938 156.464844 158.832031 156.945312 C 158.199219 157.421875 157.578125 157.921875 156.976562 158.433594 C 156.371094 158.949219 155.78125 159.480469 155.207031 160.027344 C 154.632812 160.574219 154.074219 161.136719 153.53125 161.71875 C 152.992188 162.296875 152.464844 162.890625 151.957031 163.5 C 151.449219 164.109375 150.957031 164.734375 150.484375 165.371094 C 150.011719 166.007812 149.554688 166.65625 149.121094 167.320312 C 148.683594 167.980469 148.265625 168.65625 147.867188 169.34375 C 147.46875 170.027344 147.089844 170.726562 146.730469 171.433594 C 146.375 172.140625 146.035156 172.859375 145.71875 173.585938 C 145.398438 174.3125 145.101562 175.046875 144.824219 175.792969 C 144.550781 176.535156 144.292969 177.285156 144.058594 178.046875 C 143.828125 178.804688 143.613281 179.566406 143.425781 180.335938 C 143.234375 181.109375 143.066406 181.882812 142.917969 182.664062 C 142.773438 183.441406 142.648438 184.226562 142.546875 185.011719 C 142.445312 185.800781 142.363281 186.589844 142.304688 187.378906 C 142.25 188.171875 142.214844 188.964844 142.203125 189.757812 C 142.1875 190.550781 142.199219 191.34375 142.230469 192.136719 C 142.265625 192.929688 142.320312 193.722656 142.394531 194.511719 C 142.472656 195.300781 142.574219 196.085938 142.695312 196.871094 C 142.816406 197.65625 142.960938 198.433594 143.125 199.210938 C 143.292969 199.988281 143.480469 200.757812 143.691406 201.523438 C 143.898438 202.289062 144.132812 203.046875 144.382812 203.800781 C 144.636719 204.550781 144.910156 205.296875 145.207031 206.03125 C 145.5 206.769531 145.816406 207.496094 146.152344 208.214844 C 146.488281 208.933594 146.84375 209.644531 147.222656 210.339844 C 147.597656 211.039062 147.992188 211.726562 148.410156 212.402344 C 148.824219 213.078125 149.257812 213.742188 149.710938 214.394531 C 150.164062 215.046875 150.636719 215.683594 151.125 216.308594 C 151.613281 216.933594 152.121094 217.542969 152.644531 218.140625 C 153.167969 218.738281 153.707031 219.316406 154.265625 219.882812 C 154.820312 220.449219 155.394531 220.996094 155.980469 221.53125 C 156.570312 222.0625 157.171875 222.578125 157.789062 223.078125 C 158.40625 223.578125 159.035156 224.058594 159.679688 224.523438 C 160.324219 224.984375 160.980469 225.429688 161.652344 225.855469 C 162.320312 226.28125 163 226.6875 163.695312 227.074219 C 164.386719 227.460938 165.089844 227.828125 165.804688 228.175781 C 166.515625 228.523438 167.238281 228.851562 167.972656 229.160156 C 168.703125 229.464844 169.441406 229.75 170.191406 230.015625 C 170.9375 230.28125 171.695312 230.523438 172.457031 230.746094 C 173.21875 230.964844 173.984375 231.167969 174.757812 231.34375 C 175.53125 231.523438 176.308594 231.679688 177.089844 231.8125 C 177.875 231.949219 178.660156 232.058594 179.445312 232.148438 C 180.234375 232.238281 181.027344 232.308594 181.816406 232.351562 C 182.609375 232.398438 183.402344 232.417969 184.195312 232.417969 C 215.347656 232.808594 236.222656 198.167969 221.355469 170.847656 Z M 221.355469 170.847656 " fill-opacity="1" fill-rule="nonzero"/><path fill="#fea000" d="M 184.195312 178.417969 C 185.503906 178.417969 186.777344 178.632812 188.011719 179.058594 C 188.199219 179.121094 188.394531 179.148438 188.59375 179.136719 C 188.792969 179.125 188.980469 179.074219 189.160156 178.988281 C 189.335938 178.898438 189.492188 178.78125 189.625 178.632812 C 189.757812 178.484375 189.855469 178.316406 189.917969 178.128906 C 190.578125 175.472656 185.90625 175.578125 184.195312 175.417969 C 164.300781 176.242188 164.300781 204.597656 184.195312 205.417969 C 185.179688 205.417969 186.15625 205.320312 187.121094 205.128906 C 188.085938 204.933594 189.023438 204.648438 189.933594 204.273438 C 190.84375 203.894531 191.707031 203.433594 192.527344 202.886719 C 193.34375 202.339844 194.101562 201.71875 194.796875 201.019531 C 195.496094 200.324219 196.117188 199.566406 196.664062 198.75 C 197.210938 197.929688 197.671875 197.066406 198.050781 196.15625 C 198.425781 195.246094 198.710938 194.308594 198.90625 193.34375 C 199.097656 192.378906 199.195312 191.402344 199.195312 190.417969 C 199.042969 188.679688 199.144531 184.054688 196.503906 184.710938 C 196.316406 184.777344 196.144531 184.875 195.996094 185.007812 C 195.847656 185.136719 195.730469 185.292969 195.644531 185.472656 C 195.554688 185.652344 195.503906 185.839844 195.492188 186.039062 C 195.480469 186.238281 195.507812 186.429688 195.574219 186.617188 C 195.992188 187.851562 196.199219 189.117188 196.195312 190.417969 C 195.59375 206.3125 172.796875 206.316406 172.195312 190.417969 C 172.195312 189.632812 172.273438 188.851562 172.429688 188.078125 C 172.582031 187.304688 172.8125 186.554688 173.113281 185.828125 C 173.414062 185.101562 173.785156 184.410156 174.222656 183.753906 C 174.660156 183.101562 175.15625 182.496094 175.714844 181.9375 C 176.273438 181.378906 176.878906 180.882812 177.53125 180.445312 C 178.1875 180.007812 178.878906 179.636719 179.605469 179.335938 C 180.332031 179.035156 181.082031 178.804688 181.855469 178.652344 C 182.628906 178.496094 183.410156 178.421875 184.195312 178.417969 Z M 184.195312 178.417969 " fill-opacity="1" fill-rule="nonzero"/><path fill="#fea000" d="M 198.558594 167.519531 C 198.65625 167.347656 198.714844 167.160156 198.738281 166.964844 C 198.757812 166.765625 198.742188 166.570312 198.6875 166.378906 C 198.632812 166.191406 198.542969 166.015625 198.421875 165.859375 C 198.296875 165.703125 198.148438 165.578125 197.972656 165.480469 C 193.6875 163.109375 189.09375 161.921875 184.195312 161.917969 C 146.394531 163.480469 146.394531 217.355469 184.195312 218.917969 C 184.8125 218.917969 185.429688 218.898438 186.042969 218.859375 C 186.660156 218.820312 187.273438 218.761719 187.882812 218.679688 C 188.496094 218.601562 189.101562 218.503906 189.707031 218.382812 C 190.3125 218.265625 190.914062 218.125 191.507812 217.96875 C 192.105469 217.8125 192.695312 217.632812 193.28125 217.4375 C 193.863281 217.242188 194.441406 217.027344 195.011719 216.792969 C 195.582031 216.558594 196.144531 216.308594 196.699219 216.035156 C 197.253906 215.765625 197.796875 215.480469 198.332031 215.171875 C 198.867188 214.867188 199.394531 214.546875 199.90625 214.207031 C 200.421875 213.867188 200.925781 213.507812 201.414062 213.136719 C 201.90625 212.765625 202.386719 212.378906 202.851562 211.972656 C 203.316406 211.570312 203.769531 211.152344 204.210938 210.71875 C 204.648438 210.285156 205.074219 209.839844 205.484375 209.378906 C 205.894531 208.917969 206.289062 208.445312 206.667969 207.960938 C 207.046875 207.472656 207.410156 206.976562 207.757812 206.46875 C 208.101562 205.957031 208.433594 205.4375 208.746094 204.90625 C 209.058594 204.375 209.355469 203.835938 209.632812 203.285156 C 209.910156 202.734375 210.171875 202.175781 210.414062 201.609375 C 210.65625 201.042969 210.878906 200.46875 211.082031 199.886719 C 211.289062 199.304688 211.472656 198.71875 211.640625 198.125 C 211.804688 197.53125 211.953125 196.929688 212.078125 196.328125 C 212.207031 195.726562 212.316406 195.117188 212.402344 194.507812 C 212.492188 193.898438 212.558594 193.285156 212.609375 192.671875 C 212.65625 192.058594 212.683594 191.441406 212.695312 190.824219 C 212.703125 190.207031 212.691406 189.59375 212.660156 188.976562 C 212.628906 188.363281 212.574219 187.746094 212.503906 187.136719 C 212.433594 186.523438 212.339844 185.914062 212.230469 185.308594 C 212.121094 184.699219 211.988281 184.097656 211.839844 183.5 C 211.6875 182.902344 211.519531 182.3125 211.332031 181.722656 C 211.144531 181.136719 210.933594 180.558594 210.707031 179.984375 C 210.484375 179.410156 210.238281 178.84375 209.976562 178.285156 C 209.710938 177.730469 209.429688 177.179688 209.132812 176.640625 C 209.035156 176.464844 208.910156 176.316406 208.753906 176.191406 C 208.601562 176.066406 208.425781 175.976562 208.234375 175.921875 C 208.042969 175.867188 207.847656 175.851562 207.648438 175.875 C 207.453125 175.894531 207.265625 175.957031 207.089844 176.050781 C 206.917969 176.148438 206.769531 176.273438 206.644531 176.429688 C 206.519531 176.585938 206.429688 176.761719 206.375 176.953125 C 206.320312 177.144531 206.304688 177.339844 206.328125 177.539062 C 206.351562 177.734375 206.414062 177.921875 206.507812 178.097656 C 216.015625 194.585938 203.246094 216.25 184.195312 215.917969 C 183.359375 215.917969 182.527344 215.875 181.699219 215.792969 C 180.867188 215.710938 180.042969 215.585938 179.222656 215.425781 C 178.40625 215.261719 177.59375 215.058594 176.796875 214.816406 C 176 214.570312 175.214844 214.289062 174.441406 213.96875 C 173.671875 213.648438 172.917969 213.292969 172.179688 212.898438 C 171.445312 212.503906 170.730469 212.078125 170.035156 211.613281 C 169.339844 211.148438 168.671875 210.652344 168.027344 210.121094 C 167.382812 209.59375 166.761719 209.03125 166.171875 208.441406 C 165.582031 207.851562 165.023438 207.234375 164.492188 206.589844 C 163.964844 205.941406 163.464844 205.273438 163.003906 204.578125 C 162.539062 203.886719 162.109375 203.171875 161.714844 202.433594 C 161.320312 201.699219 160.964844 200.945312 160.644531 200.171875 C 160.324219 199.402344 160.042969 198.617188 159.800781 197.816406 C 159.558594 197.019531 159.355469 196.210938 159.191406 195.390625 C 159.027344 194.574219 158.902344 193.75 158.820312 192.917969 C 158.738281 192.085938 158.695312 191.253906 158.695312 190.417969 C 158.371094 171.371094 180.027344 158.597656 196.519531 168.105469 C 196.695312 168.203125 196.878906 168.261719 197.078125 168.285156 C 197.273438 168.308594 197.46875 168.292969 197.660156 168.238281 C 197.851562 168.183594 198.023438 168.09375 198.179688 167.96875 C 198.335938 167.84375 198.460938 167.695312 198.558594 167.519531 Z M 198.558594 167.519531 " fill-opacity="1" fill-rule="nonzero"/><path fill="#fea000" d="M 223.4375 161.785156 L 212.515625 172.703125 C 212.226562 172.992188 211.875 173.136719 211.464844 173.140625 L 211.347656 173.140625 L 204.160156 172.585938 L 185.261719 191.484375 C 185.117188 191.621094 184.957031 191.722656 184.773438 191.796875 C 184.589844 191.867188 184.398438 191.902344 184.203125 191.902344 C 184.007812 191.898438 183.816406 191.859375 183.636719 191.785156 C 183.453125 191.707031 183.292969 191.597656 183.15625 191.460938 C 183.015625 191.320312 182.90625 191.160156 182.832031 190.980469 C 182.753906 190.796875 182.714844 190.609375 182.714844 190.410156 C 182.710938 190.214844 182.746094 190.023438 182.820312 189.84375 C 182.890625 189.660156 182.996094 189.496094 183.132812 189.355469 L 202.03125 170.453125 L 201.476562 163.269531 C 201.445312 162.8125 201.589844 162.425781 201.910156 162.097656 L 212.832031 151.179688 C 213.039062 150.976562 213.289062 150.84375 213.574219 150.78125 C 213.859375 150.722656 214.136719 150.742188 214.410156 150.84375 C 214.6875 150.945312 214.910156 151.109375 215.089844 151.339844 C 215.265625 151.574219 215.371094 151.832031 215.394531 152.125 L 215.890625 158.722656 L 222.492188 159.21875 C 222.78125 159.246094 223.042969 159.347656 223.273438 159.527344 C 223.503906 159.703125 223.671875 159.929688 223.773438 160.203125 C 223.875 160.476562 223.894531 160.757812 223.832031 161.042969 C 223.773438 161.328125 223.640625 161.574219 223.4375 161.785156 Z M 223.4375 161.785156 " fill-opacity="1" fill-rule="nonzero"/></svg>