<svg xmlns="http://www.w3.org/2000/svg" xmlns:xlink="http://www.w3.org/1999/xlink" width="500" zoomAndPan="magnify" viewBox="0 0 375 374.999991" height="500" preserveAspectRatio="xMidYMid meet" version="1.0"><defs><clipPath id="4d8e301179"><path d="M 145.730469 149 L 228.980469 149 L 228.980469 227.546875 L 145.730469 227.546875 Z M 145.730469 149 " clip-rule="nonzero"/></clipPath></defs><rect x="-37.5" width="450" fill="#ffffff" y="-37.499999" height="449.999989" fill-opacity="1"/><rect x="-37.5" width="450" fill="#ffffff" y="-37.499999" height="449.999989" fill-opacity="1"/><g clip-path="url(#4d8e301179)"><path fill="#fea000" d="M 198.105469 197.957031 C 199.511719 197.914062 200.660156 198.316406 201.742188 199.402344 L 226.511719 224.300781 C 226.839844 224.636719 226.894531 225.023438 226.828125 225.292969 C 226.769531 225.566406 226.722656 225.550781 226.699219 225.550781 L 148.550781 225.550781 C 148.410156 225.550781 148.398438 225.535156 148.339844 225.484375 C 148.285156 225.433594 148.210938 225.320312 148.167969 225.148438 C 148.082031 224.808594 148.230469 224.371094 148.277344 224.324219 L 161.628906 211.613281 C 163.253906 210.058594 164.28125 209.140625 165.292969 208.632812 C 166.304688 208.125 167.40625 207.929688 169.4375 207.929688 L 174.785156 207.929688 C 178.011719 207.929688 179.941406 207.300781 182.566406 205.785156 L 190.421875 201.246094 C 191.257812 201.210938 192.09375 200.925781 192.753906 200.324219 C 192.976562 200.113281 193.164062 199.847656 193.332031 199.570312 C 195.074219 198.5625 196.714844 198 198.105469 197.957031 Z M 178.675781 184.121094 C 179.136719 184.113281 179.796875 184.265625 180.523438 184.648438 C 183.820312 186.371094 185.113281 187.457031 185.710938 188.625 C 186.40625 189.964844 186.640625 192.640625 186.640625 197.488281 C 186.585938 198.644531 187.027344 199.671875 187.730469 200.324219 L 187.738281 200.324219 L 181.496094 203.921875 C 179.222656 205.234375 177.96875 205.699219 175.492188 205.769531 C 175.679688 205.378906 175.820312 204.957031 175.867188 204.488281 C 176.765625 197.726562 177.164062 192.546875 177.492188 185.921875 C 177.554688 184.617188 177.882812 184.324219 178.292969 184.183594 C 178.394531 184.148438 178.523438 184.125 178.675781 184.121094 Z M 188.738281 157.914062 C 188.714844 158.6875 188.554688 159.84375 188.410156 160.613281 C 187.753906 160.890625 187.078125 161.097656 186.507812 161.285156 C 187.023438 160.15625 187.378906 158.824219 187.636719 157.378906 C 187.757812 156.671875 188.765625 156.890625 188.738281 157.914062 Z M 190.640625 156.351562 L 193.171875 156.429688 C 192.457031 157.667969 191.65625 158.574219 190.765625 159.269531 C 190.804688 158.84375 190.855469 158.402344 190.875 158.046875 C 190.921875 157.417969 190.832031 156.847656 190.640625 156.351562 Z M 197.078125 157.152344 C 195.199219 162.460938 191.984375 164.640625 187.996094 165.84375 C 186.152344 166.402344 184.398438 166.523438 182.277344 166.75 C 181.722656 166.808594 181.304688 167.289062 181.320312 167.847656 L 181.65625 179.058594 C 181.675781 179.453125 181.90625 179.808594 182.261719 179.984375 C 186.28125 181.925781 188.910156 183.78125 190.203125 186.308594 C 191.722656 189.242188 191.601562 192.589844 191.695312 197.546875 C 191.707031 198.058594 191.511719 198.441406 191.296875 198.730469 C 191.097656 199.011719 190.648438 199.113281 190.238281 199.113281 C 189.832031 199.113281 189.441406 198.96875 189.191406 198.730469 C 188.796875 198.261719 188.792969 197.972656 188.78125 197.546875 C 188.703125 192.605469 188.695312 189.726562 187.621094 187.640625 C 186.695312 185.851562 184.933594 184.539062 181.527344 182.75 C 180.25 182.082031 178.878906 181.703125 177.582031 182.164062 C 176.292969 182.621094 175.441406 184.007812 175.355469 185.8125 C 175.027344 192.417969 174.632812 197.511719 173.746094 204.226562 C 173.742188 204.242188 173.742188 204.25 173.738281 204.261719 C 173.679688 204.859375 173.472656 205.128906 173.1875 205.328125 C 172.910156 205.519531 172.5 205.609375 172.097656 205.5625 C 171.699219 205.507812 171.328125 205.3125 171.105469 205.050781 C 170.78125 204.558594 170.796875 204.300781 170.855469 203.847656 C 172.929688 188.375 173.175781 175.996094 171.855469 166.042969 C 171.734375 165.148438 172.398438 164.386719 173.296875 164.386719 C 178.0625 164.386719 183.660156 164.386719 187.15625 163.328125 C 190.449219 162.332031 193.667969 160.582031 195.738281 156.128906 C 196.289062 154.945312 197.46875 156.046875 197.078125 157.152344 Z M 209.097656 152.382812 L 209.097656 154.746094 L 198.609375 154.460938 C 198.347656 154.144531 198.035156 153.882812 197.671875 153.707031 C 196.65625 153.210938 195.335938 153.445312 194.441406 154.328125 L 186.460938 154.070312 C 185.59375 154.042969 185.734375 152.941406 186.410156 152.925781 Z M 210.148438 149.488281 C 209.6875 149.5 209.285156 149.800781 209.144531 150.238281 L 186.480469 150.777344 C 184.773438 150.816406 183.457031 152.183594 183.480469 153.539062 C 183.5 154.730469 184.449219 155.855469 185.8125 156.140625 C 185.664062 156.429688 185.554688 156.746094 185.507812 157.097656 C 185.253906 159.027344 184.46875 160.746094 183.730469 161.816406 C 180.742188 162.1875 176.78125 162.246094 173.292969 162.246094 C 171.140625 162.246094 169.589844 164.496094 169.726562 166.320312 C 170.761719 180.011719 170.445312 192.683594 168.730469 203.535156 C 168.59375 204.359375 168.734375 205.144531 169.054688 205.792969 C 167.089844 205.820312 165.636719 206.058594 164.332031 206.714844 C 162.941406 207.414062 161.792969 208.492188 160.148438 210.058594 L 146.800781 222.769531 C 145.96875 223.566406 145.839844 224.667969 146.085938 225.65625 C 146.210938 226.15625 146.445312 226.652344 146.867188 227.046875 C 147.28125 227.441406 147.898438 227.699219 148.550781 227.699219 L 226.703125 227.699219 C 227.867188 227.699219 228.695312 226.742188 228.921875 225.777344 C 229.140625 224.804688 228.890625 223.652344 228.039062 222.792969 L 203.269531 197.886719 C 201.800781 196.414062 199.945312 195.753906 198.042969 195.816406 C 196.664062 195.859375 195.253906 196.257812 193.839844 196.898438 C 193.847656 192.292969 193.847656 188.683594 192.113281 185.324219 C 190.566406 182.316406 187.613281 180.316406 183.789062 178.402344 L 183.492188 168.726562 C 185.195312 168.554688 186.851562 168.429688 188.625 167.890625 C 193.027344 166.558594 197.003906 163.757812 199.105469 157.875 C 199.253906 157.453125 199.320312 157.039062 199.324219 156.640625 L 209.125 156.898438 C 209.445312 158.167969 211.324219 157.863281 211.238281 156.566406 L 211.238281 150.574219 C 211.246094 149.972656 210.75 149.480469 210.148438 149.488281 Z M 210.148438 149.488281 " fill-opacity="1" fill-rule="nonzero"/></g><path fill="#fea000" d="M 177.851562 150.574219 C 180.019531 151.398438 181.0625 153.742188 180.234375 155.859375 C 179.402344 157.976562 176.992188 159.03125 174.824219 158.207031 C 172.671875 157.386719 171.625 155.035156 172.457031 152.929688 C 173.289062 150.804688 175.691406 149.753906 177.851562 150.574219 Z M 178.609375 148.570312 C 175.378906 147.339844 171.710938 148.9375 170.449219 152.144531 L 170.460938 152.144531 C 169.203125 155.34375 170.824219 158.984375 174.0625 160.214844 C 177.300781 161.441406 180.96875 159.851562 182.230469 156.640625 C 183.484375 153.433594 181.855469 149.800781 178.609375 148.570312 Z M 178.609375 148.570312 " fill-opacity="1" fill-rule="evenodd"/></svg>