<svg xmlns="http://www.w3.org/2000/svg" xmlns:xlink="http://www.w3.org/1999/xlink" width="50" zoomAndPan="magnify" viewBox="0 0 37.5 37.499999" height="50" preserveAspectRatio="xMidYMid meet" version="1.0"><defs><clipPath id="551e389466"><path d="M 19 1.273438 L 21 1.273438 L 21 5 L 19 5 Z M 19 1.273438 " clip-rule="nonzero"/></clipPath></defs><path fill="#fea000" d="M 22.617188 28.898438 C 22.296875 28.898438 21.933594 28.855469 21.546875 28.769531 L 15.394531 27.101562 C 14.839844 26.976562 15.074219 26.140625 15.609375 26.289062 L 21.738281 27.9375 C 24.921875 28.726562 24.539062 25.242188 22.144531 24.6875 L 14.753906 22.660156 C 13.214844 22.210938 11.761719 21.804688 10.417969 22.660156 L 6.207031 25.265625 C 5.714844 25.566406 5.265625 24.839844 5.757812 24.539062 L 9.96875 21.933594 C 11.742188 20.820312 13.515625 21.417969 15.246094 21.910156 C 16.890625 22.382812 20.886719 23.511719 22.339844 23.855469 C 25.4375 24.582031 25.90625 28.898438 22.617188 28.898438 Z M 22.617188 28.898438 " fill-opacity="1" fill-rule="evenodd"/><path fill="#fea000" d="M 9.285156 34.773438 C 8.8125 34.773438 6.914062 34.707031 5.695312 33.683594 C 5.265625 33.320312 5.824219 32.65625 6.25 33.019531 C 7.359375 33.960938 9.371094 33.917969 9.390625 33.917969 L 18.109375 33.917969 L 34.707031 24.324219 C 35.585938 23.832031 35.882812 22.722656 35.371094 21.847656 C 34.878906 20.992188 33.769531 20.691406 32.894531 21.183594 L 24.367188 26.097656 C 23.898438 26.398438 23.472656 25.648438 23.941406 25.371094 L 32.464844 20.4375 C 34.515625 19.261719 36.996094 21.164062 36.375 23.449219 C 36.203125 24.132812 35.753906 24.710938 35.136719 25.074219 L 18.449219 34.707031 C 18.152344 34.878906 10.460938 34.730469 9.390625 34.773438 C 9.390625 34.773438 9.347656 34.773438 9.285156 34.773438 Z M 9.285156 34.773438 " fill-opacity="1" fill-rule="evenodd"/><path fill="#fea000" d="M 5.4375 35.734375 L 0.972656 35.734375 C 0.4375 35.734375 0.0117188 35.285156 0.0117188 34.773438 L 0.0117188 23.300781 C 0.0117188 22.765625 0.4375 22.339844 0.972656 22.339844 L 5.4375 22.339844 C 5.972656 22.339844 6.398438 22.765625 6.398438 23.300781 L 6.398438 34.773438 C 6.398438 35.285156 5.972656 35.734375 5.4375 35.734375 Z M 0.972656 23.191406 C 0.910156 23.191406 0.867188 23.234375 0.867188 23.300781 L 0.867188 34.773438 C 0.867188 34.816406 0.910156 34.878906 0.972656 34.878906 L 5.4375 34.878906 C 5.503906 34.878906 5.546875 34.816406 5.546875 34.773438 L 5.546875 23.300781 C 5.546875 23.234375 5.503906 23.191406 5.4375 23.191406 Z M 0.972656 23.191406 " fill-opacity="1" fill-rule="evenodd"/><path fill="#fea000" d="M 3.214844 34.066406 C 1.316406 34.066406 1.316406 31.183594 3.214844 31.183594 C 5.097656 31.183594 5.097656 34.066406 3.214844 34.066406 Z M 3.214844 32.039062 C 2.445312 32.039062 2.445312 33.214844 3.214844 33.214844 C 3.964844 33.214844 3.964844 32.039062 3.214844 32.039062 Z M 3.214844 32.039062 " fill-opacity="1" fill-rule="evenodd"/><path fill="#fea000" d="M 28.640625 11.742188 C 22.851562 11.742188 17.0625 11.742188 11.269531 11.742188 C 10.90625 11.742188 10.714844 11.335938 10.929688 11.058594 L 14.21875 6.613281 C 14.304688 6.507812 14.433594 6.441406 14.5625 6.441406 L 25.648438 6.441406 C 25.800781 6.441406 25.929688 6.507812 26.011719 6.613281 L 28.960938 11.035156 C 29.21875 11.378906 28.941406 11.742188 28.640625 11.742188 Z M 12.105469 10.886719 L 27.828125 10.886719 L 25.4375 7.296875 L 14.773438 7.296875 Z M 12.105469 10.886719 " fill-opacity="1" fill-rule="evenodd"/><path fill="#fea000" d="M 19.945312 20.4375 C 19.839844 20.4375 19.730469 20.394531 19.644531 20.308594 L 10.949219 11.613281 C 10.695312 11.355469 10.886719 10.886719 11.269531 10.886719 L 28.621094 10.886719 C 29.003906 10.886719 29.195312 11.355469 28.941406 11.613281 L 20.246094 20.308594 C 20.160156 20.394531 20.050781 20.4375 19.945312 20.4375 Z M 12.296875 11.742188 L 19.945312 19.410156 L 27.59375 11.742188 Z M 12.296875 11.742188 " fill-opacity="1" fill-rule="evenodd"/><path fill="#fea000" d="M 23.449219 11.742188 C 21.121094 11.742188 18.792969 11.742188 16.441406 11.742188 C 16.164062 11.742188 15.949219 11.464844 16.035156 11.1875 L 17.359375 6.742188 C 17.425781 6.550781 17.59375 6.441406 17.789062 6.441406 L 22.253906 6.441406 C 22.445312 6.441406 22.617188 6.570312 22.660156 6.742188 L 23.875 11.3125 C 23.875 11.550781 23.683594 11.742188 23.449219 11.742188 Z M 17.019531 10.886719 L 22.894531 10.886719 L 21.910156 7.296875 L 18.085938 7.296875 Z M 17.019531 10.886719 " fill-opacity="1" fill-rule="evenodd"/><path fill="#fea000" d="M 19.945312 20.4375 C 19.773438 20.4375 19.625 20.328125 19.539062 20.179688 L 16.058594 11.484375 C 15.949219 11.1875 16.140625 10.886719 16.441406 10.886719 L 23.449219 10.886719 C 23.75 10.886719 23.960938 11.1875 23.832031 11.484375 L 20.351562 20.179688 C 20.289062 20.328125 20.117188 20.4375 19.945312 20.4375 Z M 17.082031 11.742188 L 19.945312 18.878906 L 22.808594 11.742188 Z M 17.082031 11.742188 " fill-opacity="1" fill-rule="evenodd"/><g clip-path="url(#551e389466)"><path fill="#fea000" d="M 19.945312 4.390625 C 19.710938 4.390625 19.519531 4.199219 19.519531 3.964844 L 19.519531 1.828125 C 19.519531 1.273438 20.371094 1.273438 20.371094 1.828125 L 20.371094 3.964844 C 20.371094 4.199219 20.179688 4.390625 19.945312 4.390625 Z M 19.945312 4.390625 " fill-opacity="1" fill-rule="evenodd"/></g><path fill="#fea000" d="M 24.816406 5.566406 C 24.476562 5.566406 24.28125 5.203125 24.433594 4.925781 L 25.523438 3.066406 C 25.800781 2.574219 26.527344 3.003906 26.25 3.492188 L 25.179688 5.351562 C 25.09375 5.480469 24.964844 5.566406 24.816406 5.566406 Z M 24.816406 5.566406 " fill-opacity="1" fill-rule="evenodd"/><path fill="#fea000" d="M 15.074219 5.566406 C 14.945312 5.566406 14.796875 5.480469 14.710938 5.351562 L 13.644531 3.492188 C 13.363281 3.003906 14.089844 2.574219 14.390625 3.066406 L 15.457031 4.925781 C 15.609375 5.203125 15.414062 5.566406 15.074219 5.566406 Z M 15.074219 5.566406 " fill-opacity="1" fill-rule="evenodd"/></svg>