<svg xmlns="http://www.w3.org/2000/svg" xmlns:xlink="http://www.w3.org/1999/xlink" width="50" zoomAndPan="magnify" viewBox="0 0 37.5 37.499999" height="50" preserveAspectRatio="xMidYMid meet" version="1.0"><defs><clipPath id="c383588519"><path d="M 0 1 L 37 1 L 37 36.21875 L 0 36.21875 Z M 0 1 " clip-rule="nonzero"/></clipPath></defs><g clip-path="url(#c383588519)"><path fill="#fea000" d="M 23.203125 23.136719 C 23.824219 23.117188 24.335938 23.296875 24.8125 23.777344 L 35.789062 34.808594 C 35.933594 34.957031 35.957031 35.128906 35.929688 35.246094 C 35.902344 35.367188 35.878906 35.359375 35.871094 35.359375 L 1.25 35.359375 C 1.1875 35.359375 1.183594 35.355469 1.15625 35.332031 C 1.132812 35.308594 1.101562 35.257812 1.082031 35.183594 C 1.042969 35.03125 1.109375 34.839844 1.128906 34.816406 L 7.042969 29.1875 C 7.765625 28.5 8.21875 28.089844 8.667969 27.867188 C 9.117188 27.640625 9.605469 27.554688 10.503906 27.554688 L 12.875 27.554688 C 14.300781 27.554688 15.15625 27.277344 16.320312 26.605469 L 19.800781 24.59375 C 20.167969 24.578125 20.542969 24.453125 20.832031 24.183594 C 20.933594 24.089844 21.015625 23.976562 21.089844 23.851562 C 21.859375 23.40625 22.585938 23.15625 23.203125 23.136719 Z M 14.59375 17.007812 C 14.800781 17.003906 15.09375 17.070312 15.414062 17.242188 C 16.875 18.003906 17.449219 18.484375 17.714844 19.003906 C 18.019531 19.59375 18.125 20.78125 18.125 22.929688 C 18.101562 23.441406 18.296875 23.898438 18.609375 24.183594 L 15.84375 25.78125 C 14.839844 26.363281 14.285156 26.566406 13.1875 26.597656 C 13.269531 26.425781 13.332031 26.238281 13.351562 26.03125 C 13.75 23.035156 13.925781 20.742188 14.070312 17.804688 C 14.101562 17.226562 14.246094 17.097656 14.425781 17.035156 C 14.472656 17.019531 14.527344 17.007812 14.59375 17.007812 Z M 19.054688 5.398438 C 19.042969 5.742188 18.972656 6.253906 18.910156 6.59375 C 18.617188 6.71875 18.316406 6.808594 18.066406 6.890625 C 18.292969 6.390625 18.449219 5.800781 18.566406 5.160156 C 18.621094 4.847656 19.066406 4.945312 19.054688 5.398438 Z M 19.898438 4.703125 L 21.019531 4.738281 C 20.703125 5.289062 20.347656 5.691406 19.953125 5.996094 C 19.96875 5.808594 19.992188 5.613281 20 5.457031 C 20.019531 5.179688 19.980469 4.925781 19.898438 4.703125 Z M 22.75 5.058594 C 21.914062 7.410156 20.492188 8.375 18.726562 8.910156 C 17.90625 9.15625 17.132812 9.210938 16.191406 9.3125 C 15.945312 9.339844 15.761719 9.550781 15.765625 9.796875 L 15.917969 14.765625 C 15.925781 14.941406 16.027344 15.097656 16.183594 15.175781 C 17.964844 16.035156 19.128906 16.855469 19.703125 17.976562 C 20.375 19.277344 20.324219 20.757812 20.363281 22.957031 C 20.367188 23.183594 20.28125 23.351562 20.1875 23.480469 C 20.097656 23.605469 19.898438 23.648438 19.71875 23.648438 C 19.539062 23.648438 19.367188 23.585938 19.253906 23.480469 C 19.082031 23.273438 19.078125 23.144531 19.074219 22.957031 C 19.039062 20.765625 19.035156 19.492188 18.558594 18.566406 C 18.148438 17.773438 17.367188 17.191406 15.859375 16.398438 C 15.292969 16.105469 14.6875 15.9375 14.113281 16.140625 C 13.542969 16.34375 13.164062 16.957031 13.125 17.757812 C 12.980469 20.683594 12.804688 22.9375 12.414062 25.914062 C 12.410156 25.921875 12.410156 25.925781 12.410156 25.929688 C 12.382812 26.195312 12.292969 26.3125 12.164062 26.402344 C 12.042969 26.488281 11.859375 26.527344 11.683594 26.507812 C 11.503906 26.484375 11.339844 26.394531 11.242188 26.28125 C 11.097656 26.0625 11.105469 25.945312 11.132812 25.746094 C 12.050781 18.894531 12.160156 13.410156 11.574219 9 C 11.523438 8.601562 11.816406 8.265625 12.210938 8.265625 C 14.324219 8.265625 16.804688 8.265625 18.351562 7.796875 C 19.8125 7.355469 21.238281 6.578125 22.15625 4.605469 C 22.398438 4.082031 22.921875 4.570312 22.75 5.058594 Z M 28.074219 2.945312 L 28.074219 3.996094 L 23.425781 3.867188 C 23.3125 3.726562 23.171875 3.613281 23.011719 3.535156 C 22.5625 3.3125 21.976562 3.417969 21.578125 3.808594 L 18.042969 3.695312 C 17.660156 3.683594 17.722656 3.195312 18.023438 3.1875 Z M 28.539062 1.664062 C 28.335938 1.671875 28.15625 1.804688 28.09375 1.996094 L 18.054688 2.234375 C 17.296875 2.253906 16.714844 2.859375 16.726562 3.460938 C 16.734375 3.988281 17.152344 4.484375 17.757812 4.613281 C 17.691406 4.738281 17.644531 4.878906 17.621094 5.035156 C 17.511719 5.890625 17.164062 6.652344 16.835938 7.125 C 15.511719 7.289062 13.757812 7.316406 12.210938 7.316406 C 11.257812 7.316406 10.570312 8.3125 10.632812 9.121094 C 11.089844 15.1875 10.949219 20.800781 10.191406 25.609375 C 10.128906 25.972656 10.191406 26.320312 10.335938 26.609375 C 9.460938 26.621094 8.820312 26.726562 8.242188 27.015625 C 7.625 27.324219 7.117188 27.804688 6.390625 28.496094 L 0.476562 34.128906 C 0.105469 34.480469 0.0507812 34.972656 0.160156 35.410156 C 0.214844 35.628906 0.320312 35.847656 0.503906 36.023438 C 0.6875 36.199219 0.960938 36.3125 1.25 36.3125 L 35.871094 36.3125 C 36.386719 36.3125 36.753906 35.890625 36.855469 35.460938 C 36.953125 35.03125 36.839844 34.519531 36.464844 34.140625 L 25.492188 23.105469 C 24.839844 22.453125 24.019531 22.160156 23.175781 22.1875 C 22.566406 22.207031 21.941406 22.386719 21.3125 22.667969 C 21.316406 20.628906 21.316406 19.03125 20.550781 17.539062 C 19.863281 16.207031 18.554688 15.320312 16.859375 14.472656 L 16.730469 10.1875 C 17.484375 10.109375 18.21875 10.054688 19.003906 9.816406 C 20.953125 9.226562 22.714844 7.988281 23.644531 5.382812 C 23.714844 5.191406 23.742188 5.007812 23.742188 4.832031 L 28.085938 4.949219 C 28.226562 5.507812 29.058594 5.375 29.019531 4.800781 L 29.019531 2.148438 C 29.023438 1.878906 28.804688 1.660156 28.539062 1.664062 Z M 28.539062 1.664062 " fill-opacity="1" fill-rule="nonzero"/></g><path fill="#fea000" d="M 14.230469 2.148438 C 15.191406 2.511719 15.652344 3.550781 15.285156 4.488281 C 14.917969 5.425781 13.851562 5.894531 12.890625 5.527344 C 11.933594 5.164062 11.472656 4.125 11.839844 3.191406 C 12.207031 2.25 13.273438 1.78125 14.230469 2.148438 Z M 14.566406 1.257812 C 13.136719 0.714844 11.511719 1.421875 10.953125 2.84375 L 10.957031 2.84375 C 10.398438 4.257812 11.117188 5.871094 12.550781 6.417969 C 13.988281 6.960938 15.613281 6.253906 16.171875 4.832031 C 16.726562 3.414062 16.003906 1.804688 14.566406 1.257812 Z M 14.566406 1.257812 " fill-opacity="1" fill-rule="evenodd"/></svg>